<svg width="12" height="18" viewBox="0 0 12 18" fill="none" xmlns="http://www.w3.org/2000/svg">
<path d="M1.83325 11.5V17.3333M10.1666 11.5V17.3333" stroke="#5566FF" stroke-linecap="round" stroke-linejoin="round"/>
<path d="M6 8.1665C4.73188 8.1665 3.39109 8.41022 2.34002 8.73631C1.54859 8.98184 0.91195 10.1015 1.00999 11.0105C1.04632 11.3472 1.30731 11.4998 1.58173 11.4998H10.4183C10.6927 11.4998 10.9537 11.3472 10.99 11.0105C11.0881 10.1015 10.4514 8.98184 9.65998 8.73631C8.60891 8.41022 7.26812 8.1665 6 8.1665Z" stroke="#5566FF" stroke-linecap="round"/>
<path d="M1.90311 8.99984L1.59839 5.90601C1.38605 3.75015 1.27988 2.67223 1.73918 1.89933C2.60362 0.444696 4.53387 0.680663 6.00008 0.680663C7.4663 0.680663 9.39654 0.444696 10.261 1.89933C10.7203 2.67223 10.6141 3.75015 10.4018 5.90601L10.0971 8.99984" stroke="#5566FF" stroke-linejoin="round"/>
<path d="M1.83325 14L10.1666 14" stroke="#5566FF" stroke-linecap="round" stroke-linejoin="round"/>
</svg>
