<svg width="16" height="19" viewBox="0 0 16 19" fill="none" xmlns="http://www.w3.org/2000/svg">
<path d="M8 12.8898V11.2231" stroke="#2F3138" stroke-width="1.5" stroke-linecap="round"/>
<path d="M1.55643 14.8438C1.74383 16.2357 2.89669 17.3262 4.29963 17.3906C5.48015 17.4449 6.67934 17.4732 7.99992 17.4732C9.3205 17.4732 10.5197 17.4449 11.7002 17.3906C13.1031 17.3262 14.256 16.2357 14.4434 14.8438C14.5657 13.9355 14.6666 13.0046 14.6666 12.0566C14.6666 11.1085 14.5657 10.1777 14.4434 9.26927C14.256 7.87741 13.1031 6.78697 11.7002 6.72247C10.5197 6.6682 9.3205 6.63989 7.99992 6.63989C6.67934 6.63989 5.48015 6.6682 4.29963 6.72247C2.89669 6.78697 1.74383 7.87741 1.55643 9.26927C1.43412 10.1777 1.33325 11.1085 1.33325 12.0566C1.33325 13.0046 1.43412 13.9355 1.55643 14.8438Z" stroke="#2F3138" stroke-width="1.5"/>
<path d="M4.25 6.63997V4.55664C4.25 2.48557 5.92893 0.806641 8 0.806641C10.0711 0.806641 11.75 2.48557 11.75 4.55664V6.63997" stroke="#2F3138" stroke-width="1.5" stroke-linecap="round" stroke-linejoin="round"/>
</svg>
