<svg width="30" height="30" viewBox="0 0 30 30" fill="none" xmlns="http://www.w3.org/2000/svg">
<rect x="0.5" y="0.5" width="29" height="29" rx="4.5" fill="#FCB415" fill-opacity="0.2"/>
<rect x="0.5" y="0.5" width="29" height="29" rx="4.5" stroke="#FCB415"/>
<path d="M8.33325 14.1667L8.33325 17.5001C8.33325 20.2499 8.33325 21.6248 9.18753 22.4792C10.0418 23.3334 11.4167 23.3334 14.1666 23.3334H15.8333C18.5831 23.3334 19.958 23.3334 20.8123 22.4792C21.6666 21.6248 21.6666 20.2499 21.6666 17.5001V14.1667" stroke="#FCB415" stroke-linecap="round" stroke-linejoin="round"/>
<path d="M7.5 12.4999C7.5 11.8768 7.5 11.5653 7.66747 11.3333C7.77717 11.1812 7.93497 11.055 8.125 10.9672C8.41507 10.8333 8.80448 10.8333 9.58333 10.8333L20.4167 10.8333C21.1955 10.8333 21.5849 10.8333 21.875 10.9672C22.065 11.055 22.2228 11.1812 22.3325 11.3333C22.5 11.5653 22.5 11.8768 22.5 12.4999C22.5 13.123 22.5 13.4345 22.3325 13.6666C22.2228 13.8186 22.065 13.9448 21.875 14.0326C21.5849 14.1666 21.1955 14.1666 20.4167 14.1666L9.58333 14.1666C8.80448 14.1666 8.41507 14.1666 8.125 14.0326C7.93497 13.9448 7.77717 13.8186 7.66747 13.6666C7.5 13.4345 7.5 13.123 7.5 12.4999Z" stroke="#FCB415" stroke-linejoin="round"/>
<path d="M10 8.15484C10 7.33299 10.6662 6.66675 11.4881 6.66675H11.7857C13.5609 6.66675 15 8.10583 15 9.88103V10.8334H12.6786C11.1992 10.8334 10 9.63417 10 8.15484Z" stroke="#FCB415" stroke-linejoin="round"/>
<path d="M20 8.15484C20 7.33299 19.3338 6.66675 18.5119 6.66675H18.2142C16.4391 6.66675 15 8.10583 15 9.88103L15 10.8334H17.3214C18.8007 10.8334 20 9.63417 20 8.15484Z" stroke="#FCB415" stroke-linejoin="round"/>
<path d="M15 14.1667L15 23.3334" stroke="#FCB415" stroke-linecap="round" stroke-linejoin="round"/>
</svg>
