<svg width="161" height="63" viewBox="0 0 161 63" fill="none" xmlns="http://www.w3.org/2000/svg">
<path d="M11.5709 0.228079C10.6552 2.10089 10.3265 4.2072 10.6282 6.27041C10.7681 7.27275 11.0221 8.25578 11.3852 9.20035C11.5254 9.68107 11.7777 10.1337 11.9635 10.6039C12.1492 11.0741 12.4401 11.4987 12.6644 11.9443C12.8887 12.3899 13.2147 12.9619 13.5056 13.4672C13.7965 13.9725 14.0313 14.5409 14.2696 15.0988C14.7296 16.2502 14.9479 17.484 14.911 18.7235C14.8691 19.9843 14.5685 21.2229 14.0278 22.3623C13.5102 23.5043 12.6535 24.4588 11.5744 25.0957L11.3011 24.8571C11.6602 22.8857 11.6685 20.8662 11.3256 18.8919C11.2835 18.6604 11.2415 18.4323 11.2135 18.1902C11.1854 17.9481 11.1223 17.734 11.0873 17.4884C11.0522 17.2428 11.0242 17.0217 10.9716 16.7866L10.8595 16.0848C10.7754 15.6076 10.6667 15.1234 10.5581 14.6356C10.4494 14.1479 10.2602 13.6988 10.0779 13.1795C9.89566 12.6601 9.66435 12.0847 9.50313 11.5232C9.33488 10.9647 9.19568 10.3979 9.08606 9.82494C8.87275 8.66826 8.79045 7.49118 8.84073 6.31603C9.02298 3.98612 9.75547 1.68077 11.2941 0L11.5709 0.228079Z" fill="url(#paint0_linear_1_441)"/>
<path d="M40.5809 31.4373C40.5842 29.8693 40.1271 28.335 39.2666 27.0249C38.4061 25.7148 37.1801 24.6868 35.7409 24.0686V19.2754C35.7409 17.2157 33.8237 15.6858 31.2442 15.6858H25.6647C23.0852 15.6858 21.1716 17.2157 21.1716 19.2754V57.1716C21.1716 58.698 20.3374 59.8313 18.2591 59.8313C10.3524 59.8313 3.77743 54.6452 3.77743 48.252V16.8157C3.77743 16.149 3.11153 15.6858 2.27739 15.6858C1.52737 15.6858 0.875488 16.2156 0.875488 16.8157V48.252C0.875488 55.8277 8.61751 62.1402 18.2731 62.1402C27.9287 62.1402 35.7549 56.0944 35.7549 48.252V38.7779C37.1874 38.1598 38.4077 37.1353 39.2653 35.8308C40.123 34.5263 40.5803 32.999 40.5809 31.4373Z" fill="#55432F"/>
<path d="M78.2223 52.5569C77.9149 52.68 77.5392 52.8442 77.1976 53.0083C74.6232 54.0799 71.8557 54.6085 69.068 54.5609C59.0393 54.5609 51.0122 48.0291 51.0122 40.1429C51.0122 32.1337 59.2101 25.725 69.068 25.725C71.4528 25.6979 73.8242 26.0844 76.0772 26.8672L76.7945 27.0724C77.3315 27.2584 77.845 27.5063 78.3248 27.8111C78.4133 27.869 78.4871 27.9468 78.5404 28.0382C78.5938 28.1296 78.6252 28.2321 78.6322 28.3377C78.6322 28.7481 78.2223 29.0217 77.71 29.0217C77.5129 29.012 77.321 28.9557 77.1498 28.8575C74.6045 27.7285 71.8519 27.1437 69.068 27.1408C64.4636 27.1408 59.1418 28.4061 59.1418 32.7356V47.5229C59.1418 51.8524 64.607 53.1178 69.068 53.1178C71.8808 53.1542 74.666 52.5581 77.2181 51.3736C77.4086 51.2746 77.6185 51.2186 77.8329 51.2095C78.0528 51.1864 78.2729 51.251 78.4456 51.3892C78.6182 51.5275 78.7294 51.7283 78.7552 51.9482C78.7347 52.2354 78.5844 52.4338 78.2223 52.5569Z" fill="#55432F"/>
<path d="M108.644 53.6644C108.698 53.7055 108.698 53.8286 108.698 54.0269C108.698 54.2253 108.439 54.3963 108.084 54.5194C107.523 54.5604 107.318 54.4784 107.216 54.3142C107.121 54.2261 107.034 54.13 106.956 54.0269C106.956 53.9859 106.854 53.7055 106.704 53.2541C106.553 52.8026 106.294 52.276 106.089 51.7015C105.884 51.1269 105.576 50.3335 105.269 49.5333C105.1 49.0797 104.772 48.7029 104.347 48.4731C103.875 48.2261 103.349 48.1015 102.816 48.1106H95.6638C95.1293 48.1023 94.6012 48.2269 94.1267 48.4731C93.7041 48.7068 93.3775 49.0822 93.2044 49.5333L91.8381 53.2951C91.6613 53.6542 91.3834 53.9538 91.0386 54.1567C90.6939 54.3597 90.2974 54.4572 89.8979 54.4373H84.8221C84.526 54.4561 84.2295 54.4074 83.955 54.2948C83.6805 54.1823 83.435 54.0088 83.2372 53.7875C83.0508 53.6194 82.9216 53.3972 82.8677 53.1519C82.8138 52.9066 82.8379 52.6505 82.9366 52.4196L92.3436 27.3797C92.513 27.0249 92.7825 26.7276 93.1188 26.5246C93.4551 26.3216 93.8436 26.2218 94.236 26.2374H96.7978C97.8157 26.2374 98.4852 26.5999 98.738 27.3797L108.644 53.6644ZM102.816 46.6743C102.968 46.6806 103.119 46.6552 103.26 46.5999C103.401 46.5445 103.529 46.4604 103.636 46.3528C103.731 46.258 103.795 46.1374 103.822 46.0061C103.849 45.8748 103.836 45.7385 103.787 45.6142L100.255 36.1823C100.166 35.9922 100.02 35.8346 99.8377 35.7315C99.6552 35.6285 99.445 35.5852 99.2367 35.6078C99.0347 35.592 98.8328 35.6387 98.6581 35.7414C98.4834 35.8441 98.3444 35.998 98.2598 36.1823L94.7347 45.6142C94.6847 45.7385 94.6723 45.8748 94.699 46.0061C94.7257 46.1374 94.7904 46.258 94.885 46.3528C94.9919 46.4604 95.12 46.5445 95.2611 46.5999C95.4022 46.6552 95.5533 46.6806 95.7048 46.6743H102.816Z" fill="#55432F"/>
<path d="M121.096 52.1945C121.096 53.5009 119.867 54.479 118.234 54.479H115.057C113.472 54.479 112.243 53.5009 112.243 52.2356V28.4609C112.243 27.1956 113.472 26.2175 115.057 26.2175H132.3C132.542 26.2187 132.778 26.2874 132.983 26.4159C133.06 26.4831 133.122 26.5648 133.167 26.6564C133.211 26.748 133.237 26.8476 133.243 26.9494C133.241 27.0461 133.217 27.1411 133.172 27.2267C133.127 27.3122 133.062 27.3859 132.983 27.4418C132.78 27.5756 132.543 27.6469 132.3 27.647H123.419C122.087 27.647 121.117 28.4199 121.117 29.48V38.3716C121.117 39.4317 122.087 40.2115 123.419 40.2115H129.096C129.318 40.2078 129.535 40.2802 129.711 40.4166C129.776 40.48 129.827 40.5555 129.862 40.6389C129.897 40.7222 129.916 40.8118 129.916 40.9023C129.916 41.3537 129.656 41.5862 129.096 41.5862H123.399C122.066 41.5862 121.096 42.3659 121.096 43.4261V52.1945Z" fill="#55432F"/>
<path d="M140.791 54.5195C139.207 54.5195 138.059 53.5004 138.059 52.2761V28.5015C138.059 27.2772 139.234 26.2581 140.791 26.2581H159.237C159.458 26.253 159.675 26.3229 159.852 26.4564C160.002 26.5946 160.092 26.786 160.104 26.9899C160.071 27.1916 159.963 27.3736 159.803 27.5001C159.642 27.6266 159.44 27.6886 159.237 27.6739H148.62C148.174 27.646 147.734 27.7904 147.391 28.0774C147.234 28.1895 147.106 28.3372 147.017 28.5084C146.928 28.6795 146.88 28.8693 146.878 29.0623V38.8293C146.88 39.0214 146.928 39.2102 147.017 39.3803C147.106 39.5504 147.234 39.6968 147.391 39.8074C147.732 40.0994 148.173 40.2466 148.62 40.2178H154.81C155.322 40.2999 155.677 40.464 155.677 40.9018C155.644 41.1035 155.536 41.2854 155.376 41.4119C155.215 41.5384 155.014 41.6004 154.81 41.5857H148.62C148.173 41.5569 147.732 41.7041 147.391 41.9961C147.234 42.1068 147.106 42.2532 147.017 42.4232C146.928 42.5933 146.88 42.7821 146.878 42.9742V51.6742C146.88 51.8663 146.927 52.0554 147.016 52.2255C147.105 52.3957 147.234 52.542 147.391 52.6523C147.732 52.9442 148.173 53.0915 148.62 53.0626H159.257C159.461 53.0479 159.663 53.1099 159.823 53.2364C159.984 53.3629 160.091 53.5449 160.125 53.7466C160.118 53.8525 160.09 53.9559 160.042 54.0507C159.994 54.1454 159.928 54.2295 159.847 54.2979C159.766 54.3663 159.672 54.4175 159.571 54.4485C159.469 54.4796 159.363 54.4897 159.257 54.4785L140.791 54.5195Z" fill="#55432F"/>
<defs>
<linearGradient id="paint0_linear_1_441" x1="8.83021" y1="12.5443" x2="14.939" y2="12.5443" gradientUnits="userSpaceOnUse">
<stop stop-color="#E86724"/>
<stop offset="1" stop-color="#FCB415"/>
</linearGradient>
</defs>
</svg>
