<svg width="20" height="20" viewBox="0 0 20 20" fill="none" xmlns="http://www.w3.org/2000/svg">
<path d="M2.5 5C2.5 3.82149 2.5 3.23223 2.86612 2.86612C3.23223 2.5 3.82149 2.5 5 2.5C6.17851 2.5 6.76777 2.5 7.13388 2.86612C7.5 3.23223 7.5 3.82149 7.5 5C7.5 6.17851 7.5 6.76777 7.13388 7.13388C6.76777 7.5 6.17851 7.5 5 7.5C3.82149 7.5 3.23223 7.5 2.86612 7.13388C2.5 6.76777 2.5 6.17851 2.5 5Z" stroke="white" stroke-width="1.25"/>
<path d="M2.5 15C2.5 13.8215 2.5 13.2322 2.86612 12.8661C3.23223 12.5 3.82149 12.5 5 12.5C6.17851 12.5 6.76777 12.5 7.13388 12.8661C7.5 13.2322 7.5 13.8215 7.5 15C7.5 16.1785 7.5 16.7677 7.13388 17.1339C6.76777 17.5 6.17851 17.5 5 17.5C3.82149 17.5 3.23223 17.5 2.86612 17.1339C2.5 16.7677 2.5 16.1785 2.5 15Z" stroke="white" stroke-width="1.25"/>
<path d="M2.5 10H7.5" stroke="white" stroke-width="1.25" stroke-linecap="round" stroke-linejoin="round"/>
<path d="M10 2.5V6.66667" stroke="white" stroke-width="1.25" stroke-linecap="round" stroke-linejoin="round"/>
<path d="M12.5 5C12.5 3.82149 12.5 3.23223 12.8661 2.86612C13.2322 2.5 13.8215 2.5 15 2.5C16.1785 2.5 16.7677 2.5 17.1339 2.86612C17.5 3.23223 17.5 3.82149 17.5 5C17.5 6.17851 17.5 6.76777 17.1339 7.13388C16.7677 7.5 16.1785 7.5 15 7.5C13.8215 7.5 13.2322 7.5 12.8661 7.13388C12.5 6.76777 12.5 6.17851 12.5 5Z" stroke="white" stroke-width="1.25"/>
<path d="M17.5 10H12.5C11.3215 10 10.7322 10 10.3661 10.3661C10 10.7322 10 11.3215 10 12.5M10 14.8077V17.1154M12.5 12.5V13.75C12.5 14.9553 13.1531 15 14.1667 15C14.6269 15 15 15.3731 15 15.8333M13.3333 17.5H12.5M15 12.5C16.1785 12.5 16.7677 12.5 17.1339 12.8667C17.5 13.2332 17.5 13.8234 17.5 15.0036C17.5 16.1838 17.5 16.7739 17.1339 17.1406C16.8667 17.4082 16.4806 17.4805 15.8333 17.5" stroke="white" stroke-width="1.25" stroke-linecap="round"/>
</svg>
