<svg width="18" height="19" viewBox="0 0 18 19" fill="none" xmlns="http://www.w3.org/2000/svg">
<path d="M4.48131 12.0413C3.30234 12.7433 0.211137 14.1767 2.09388 15.9704C3.01359 16.8467 4.03791 17.4733 5.32572 17.4733H12.6743C13.9621 17.4733 14.9864 16.8467 15.9061 15.9704C17.7889 14.1767 14.6977 12.7433 13.5187 12.0413C10.754 10.3951 7.24599 10.3951 4.48131 12.0413Z" stroke="#2F3138" stroke-width="1.5" stroke-linecap="round" stroke-linejoin="round"/>
<path d="M12.75 4.55664C12.75 6.62771 11.0711 8.30664 9 8.30664C6.92893 8.30664 5.25 6.62771 5.25 4.55664C5.25 2.48557 6.92893 0.806641 9 0.806641C11.0711 0.806641 12.75 2.48557 12.75 4.55664Z" stroke="#2F3138" stroke-width="1.5"/>
</svg>
