<svg width="20" height="20" viewBox="0 0 20 20" fill="none" xmlns="http://www.w3.org/2000/svg">
<path d="M18.3334 18.3333L1.66675 18.3333" stroke="#5566FF" stroke-linecap="round"/>
<path d="M17.4999 18.3334L17.4999 5.00008C17.4999 3.42873 17.4999 2.64306 17.0117 2.1549C16.5236 1.66675 15.7379 1.66675 14.1665 1.66675L12.4999 1.66675C10.9285 1.66675 10.1429 1.66675 9.6547 2.1549C9.26175 2.54786 9.18511 3.1336 9.17017 4.16675" stroke="#5566FF"/>
<path d="M12.5 18.3334L12.5 7.50008C12.5 5.92873 12.5 5.14306 12.0118 4.6549C11.5237 4.16675 10.738 4.16675 9.16667 4.16675L5.83333 4.16675C4.26198 4.16675 3.47631 4.16675 2.98816 4.6549C2.5 5.14306 2.5 5.92873 2.5 7.50008L2.5 18.3334" stroke="#5566FF"/>
<path d="M7.5 18.3333L7.5 15.8333" stroke="#5566FF" stroke-linecap="round"/>
<path d="M5 6.66675L10 6.66675" stroke="#5566FF" stroke-linecap="round"/>
<path d="M5 9.16675L10 9.16675" stroke="#5566FF" stroke-linecap="round"/>
<path d="M5 11.6667L10 11.6667" stroke="#5566FF" stroke-linecap="round"/>
</svg>
