<svg width="18" height="18" viewBox="0 0 18 18" fill="none" xmlns="http://www.w3.org/2000/svg">
<path d="M11.5 13.8274C11.4387 15.3707 10.1526 16.6811 8.4297 16.6389C8.02887 16.6291 7.53345 16.4894 6.5426 16.2099C4.15801 15.5373 2.08796 14.4069 1.5913 11.8745C1.5 11.409 1.5 10.8852 1.5 9.83761L1.5 8.44218C1.5 7.39456 1.5 6.87076 1.5913 6.40527C2.08796 3.87292 4.15801 2.74251 6.5426 2.06989C7.53345 1.79041 8.02887 1.65066 8.4297 1.64086C10.1526 1.59871 11.4387 2.9091 11.5 4.45238" stroke="white" stroke-width="1.5" stroke-linecap="round"/>
<path d="M7.33325 9.13997H16.4999M7.33325 9.13997C7.33325 8.55645 8.99517 7.46625 9.41658 7.05664M7.33325 9.13997C7.33325 9.7235 8.99517 10.8137 9.41659 11.2233" stroke="white" stroke-width="1.5" stroke-linecap="round" stroke-linejoin="round"/>
</svg>
