<svg width="108" height="44" viewBox="0 0 108 44" fill="none" xmlns="http://www.w3.org/2000/svg">
<path d="M7.25377 1.08485C6.63274 2.35489 6.40987 3.78328 6.61443 5.18245C6.70936 5.86219 6.8816 6.52882 7.1278 7.16938C7.22287 7.49538 7.394 7.80234 7.51997 8.12121C7.64594 8.44007 7.84321 8.72799 7.99532 9.0302C8.14743 9.3324 8.36847 9.72027 8.56574 10.0629C8.76301 10.4056 8.92225 10.7911 9.08387 11.1694C9.39579 11.9502 9.54384 12.7869 9.51881 13.6275C9.49044 14.4825 9.28656 15.3224 8.91987 16.0951C8.56886 16.8696 7.9879 17.5169 7.25615 17.9488L7.07076 17.787C7.3143 16.4501 7.31993 15.0806 7.0874 13.7417C7.05888 13.5847 7.03036 13.43 7.01134 13.2658C6.99233 13.1016 6.94955 12.9565 6.92578 12.7899C6.90201 12.6233 6.883 12.4734 6.84735 12.314L6.77129 11.8381C6.71425 11.5145 6.64057 11.1861 6.56689 10.8553C6.49321 10.5246 6.36487 10.22 6.24128 9.8678C6.11769 9.51563 5.96082 9.12538 5.85149 8.74465C5.73739 8.3659 5.64299 7.98148 5.56866 7.59294C5.424 6.80854 5.36819 6.01031 5.40228 5.21338C5.52587 3.63336 6.02262 2.06998 7.06601 0.930176L7.25377 1.08485Z" fill="url(#paint0_linear_11_2162)"/>
<path d="M26.9262 22.2487C26.9284 21.1854 26.6185 20.1449 26.0349 19.2565C25.4514 18.3681 24.6199 17.6709 23.6439 17.2517V14.0012C23.6439 12.6044 22.3438 11.5669 20.5945 11.5669H16.8107C15.0615 11.5669 13.7638 12.6044 13.7638 14.0012V39.7004C13.7638 40.7355 13.1981 41.5041 11.7887 41.5041C6.42673 41.5041 1.96795 37.9871 1.96795 33.6516V12.3331C1.96795 11.881 1.51637 11.5669 0.9507 11.5669C0.442075 11.5669 0 11.9262 0 12.3331V33.6516C0 38.7891 5.25024 43.0699 11.7982 43.0699C18.3461 43.0699 23.6534 38.9699 23.6534 33.6516V27.2268C24.6248 26.8076 25.4524 26.1128 26.034 25.2282C26.6156 24.3436 26.9258 23.3078 26.9262 22.2487Z" fill="#55432F"/>
<path d="M52.4525 36.5712C52.244 36.6547 51.9892 36.766 51.7576 36.8773C50.0118 37.6041 48.135 37.9625 46.2445 37.9302C39.4436 37.9302 34 33.5007 34 28.1527C34 22.7213 39.5594 18.3752 46.2445 18.3752C47.8617 18.3568 49.4699 18.6189 50.9978 19.1498L51.4843 19.2889C51.8484 19.4151 52.1966 19.5832 52.522 19.7898C52.582 19.8292 52.632 19.8819 52.6682 19.9439C52.7044 20.0058 52.7257 20.0754 52.7305 20.147C52.7305 20.4253 52.4525 20.6108 52.1051 20.6108C51.9714 20.6043 51.8412 20.5661 51.7252 20.4995C49.9991 19.7338 48.1324 19.3373 46.2445 19.3353C43.122 19.3353 39.5131 20.1934 39.5131 23.1294V33.1574C39.5131 36.0935 43.2193 36.9516 46.2445 36.9516C48.152 36.9762 50.0408 36.5721 51.7715 35.7688C51.9007 35.7016 52.043 35.6636 52.1884 35.6575C52.3376 35.6418 52.4868 35.6856 52.6039 35.7794C52.721 35.8731 52.7964 36.0093 52.8139 36.1584C52.8 36.3532 52.6981 36.4877 52.4525 36.5712Z" fill="#55432F"/>
<path d="M73.0825 37.3226C73.1196 37.3504 73.1196 37.4339 73.1196 37.5684C73.1196 37.7029 72.9436 37.8189 72.7027 37.9024C72.3228 37.9302 72.1838 37.8745 72.1143 37.7632C72.0501 37.7035 71.9912 37.6383 71.9382 37.5684C71.9382 37.5406 71.8687 37.3504 71.7668 37.0443C71.6649 36.7382 71.4889 36.381 71.3499 35.9914C71.2109 35.6018 71.0024 35.0637 70.7939 34.5211C70.6794 34.2134 70.4571 33.958 70.1685 33.8021C69.8486 33.6346 69.4918 33.5501 69.1308 33.5563H64.2802C63.9178 33.5507 63.5596 33.6351 63.2378 33.8021C62.9513 33.9606 62.7298 34.2151 62.6124 34.5211L61.6858 37.0721C61.5659 37.3157 61.3775 37.5188 61.1437 37.6564C60.9099 37.7941 60.641 37.8602 60.3701 37.8467H56.9279C56.7271 37.8595 56.5261 37.8264 56.3399 37.7501C56.1537 37.6738 55.9873 37.5561 55.8531 37.4061C55.7267 37.2921 55.6391 37.1413 55.6025 36.975C55.566 36.8086 55.5823 36.635 55.6492 36.4784L62.0286 19.4976C62.1435 19.257 62.3262 19.0554 62.5543 18.9177C62.7824 18.7801 63.0458 18.7124 63.3119 18.723H65.0492C65.7395 18.723 66.1935 18.9688 66.365 19.4976L73.0825 37.3226ZM69.1308 32.5822C69.2334 32.5865 69.3359 32.5693 69.4316 32.5318C69.5273 32.4942 69.6142 32.4372 69.6867 32.3642C69.7508 32.2999 69.7947 32.2182 69.8128 32.1291C69.8309 32.04 69.8225 31.9476 69.7886 31.8633L67.3934 25.4671C67.3334 25.3382 67.2345 25.2313 67.1107 25.1614C66.9869 25.0916 66.8444 25.0622 66.7032 25.0775C66.5662 25.0668 66.4292 25.0984 66.3108 25.1681C66.1923 25.2378 66.098 25.3421 66.0407 25.4671L63.6501 31.8633C63.6162 31.9476 63.6078 32.04 63.6259 32.1291C63.6441 32.2182 63.6879 32.2999 63.752 32.3642C63.8246 32.4372 63.9114 32.4942 64.0071 32.5318C64.1028 32.5693 64.2053 32.5865 64.308 32.5822H69.1308Z" fill="#55432F"/>
<path d="M81.5281 36.3252C81.5281 37.2112 80.6942 37.8744 79.5869 37.8744H77.4326C76.3578 37.8744 75.5239 37.2112 75.5239 36.3531V20.2303C75.5239 19.3723 76.3578 18.709 77.4326 18.709H89.1259C89.2898 18.7098 89.4503 18.7563 89.5892 18.8435C89.6411 18.889 89.6834 18.9445 89.7136 19.0066C89.7438 19.0688 89.7614 19.1363 89.7652 19.2053C89.7641 19.2709 89.7476 19.3353 89.7171 19.3933C89.6865 19.4514 89.6427 19.5013 89.5892 19.5392C89.4516 19.6299 89.2906 19.6783 89.1259 19.6784H83.1032C82.1998 19.6784 81.542 20.2025 81.542 20.9215V26.9512C81.542 27.6702 82.1998 28.1989 83.1032 28.1989H86.9531C87.1038 28.1965 87.2509 28.2456 87.37 28.3381C87.4138 28.3811 87.4486 28.4323 87.4725 28.4888C87.4964 28.5453 87.5088 28.606 87.509 28.6674C87.509 28.9735 87.333 29.1312 86.9531 29.1312H83.0893C82.1859 29.1312 81.5281 29.66 81.5281 30.3789V36.3252Z" fill="#55432F"/>
<path d="M94.8844 37.9024C93.8096 37.9024 93.0312 37.2113 93.0312 36.3811V20.2584C93.0312 19.4281 93.8281 18.737 94.8844 18.737H107.393C107.543 18.7336 107.69 18.781 107.81 18.8715C107.912 18.9652 107.973 19.095 107.981 19.2333C107.959 19.3701 107.886 19.4935 107.777 19.5793C107.668 19.6651 107.531 19.7071 107.393 19.6971H100.194C99.8909 19.6782 99.5925 19.7762 99.3597 19.9708C99.2533 20.0468 99.1663 20.147 99.106 20.263C99.0456 20.3791 99.0135 20.5078 99.0122 20.6387V27.2622C99.0134 27.3924 99.0456 27.5205 99.106 27.6358C99.1664 27.7511 99.2534 27.8504 99.3597 27.9255C99.5908 28.1234 99.89 28.2233 100.194 28.2038H104.391C104.738 28.2594 104.979 28.3707 104.979 28.6676C104.957 28.8044 104.884 28.9278 104.775 29.0136C104.666 29.0994 104.529 29.1414 104.391 29.1314H100.194C99.89 29.1119 99.5908 29.2117 99.3597 29.4097C99.2534 29.4848 99.1664 29.584 99.106 29.6994C99.0456 29.8147 99.0134 29.9428 99.0122 30.073V35.9729C99.0131 36.1032 99.045 36.2314 99.1055 36.3468C99.1659 36.4622 99.2531 36.5614 99.3597 36.6362C99.5908 36.8342 99.89 36.934 100.194 36.9145H107.407C107.545 36.9045 107.682 36.9465 107.791 37.0323C107.9 37.1181 107.973 37.2415 107.995 37.3783C107.991 37.4501 107.972 37.5203 107.939 37.5845C107.907 37.6488 107.862 37.7058 107.807 37.7522C107.752 37.7985 107.688 37.8333 107.619 37.8543C107.551 37.8754 107.478 37.8823 107.407 37.8746L94.8844 37.9024Z" fill="#55432F"/>
<defs>
<linearGradient id="paint0_linear_11_2162" x1="5.39515" y1="9.4371" x2="9.53783" y2="9.4371" gradientUnits="userSpaceOnUse">
<stop stop-color="#E86724"/>
<stop offset="1" stop-color="#FCB415"/>
</linearGradient>
</defs>
</svg>
